<svg id="ejdlw9yk25fs1" xmlns="http://www.w3.org/2000/svg" xmlns:xlink="http://www.w3.org/1999/xlink" viewBox="0 0 1011.500031 301.500092" shape-rendering="geometricPrecision" text-rendering="geometricPrecision"><path id="ejdlw9yk25fs2" d="M1011.500000,84.500000C1010.479190,84.500000,1009.468990,84.086730,1008.784000,84.500000C1008.157470,84.878010,1007.621520,85.500000,1006.784000,85.500000C1005.925360,85.500000,1005.343570,86.150250,1004.489320,86.500000C1003.686220,86.828800,1003.185670,86.869470,1002.498660,87.414670C1001.843570,87.934560,1000.784000,87.500000,999.925360,87.500000C999.000010,87.500000,998.147340,87.500000,997.216010,87.500000C996.333320,87.500000,995.520940,87.349880,994.889350,86.925330C994.094180,86.390840,993.008120,86.666630,992.278510,86.278660C991.605600,85.920820,990.785280,85.510340,989.925360,85.500000C988.999820,85.488860,988.584480,84.684330,987.979190,84.500000C987.062380,84.220800,986.095280,84.610980,985.299990,84.216000C984.430850,83.784340,983.785340,83.500670,982.889350,83.500000C982.000010,83.499340,981.110660,83.500000,980.142830,83.500000C979.301340,83.500000,978.332160,83.455740,977.500010,83.500000C976.696600,83.542720,975.962290,84.244790,975.099990,84.464000C974.226880,84.685950,973.409560,84.942570,972.666700,85.333340C971.955760,85.707330,971.178720,86.086890,970.301340,86.414670C969.490300,86.717660,968.931410,87.155800,968.200020,87.795510C967.535530,88.376680,966.662910,88.294870,965.800000,88.557180C964.915300,88.826090,964.301890,89.701930,963.800000,90.200010C963.102610,90.892030,962.252510,91.297090,961.500010,91.666680C960.803840,92.008630,960.021560,92.706380,959.361340,93.064020C958.490800,93.535560,957.931410,94.155810,957.200020,94.795520C956.535530,95.376690,955.656320,95.548720,954.979190,96.000020C954.230170,96.499230,953.330390,96.447370,952.479190,96.520860C951.492860,96.606000,950.699160,96.956450,950.042850,97.147360C949.090820,97.424270,948.275090,97.477980,947.452640,97.495530C946.421570,97.517530,945.500000,97.500030,944.815980,97.500030C943.815980,97.500030,943,97.500030,942.184020,97.500030C940.961670,97.500030,940.161680,97.500030,939.257140,97.500030C938.299990,97.500030,937.400020,97.500030,936.500000,97.500030C935.621340,97.500030,935.049010,97.833000,934.333310,98.333370C933.616450,98.834530,932.568420,98.107650,931.785340,98.585370C930.981870,99.075510,930.447330,99.500040,929.500000,99.500040C928.700010,99.500040,927.785340,99.500040,926.889340,99.500040C926.020810,99.500040,925.142820,99.500040,924.200010,99.500040C923.299990,99.500040,922.400140,99.500120,921.525330,99.500040C920.621340,99.499960,920.116330,98.761980,919.278690,98.500040C918.376410,98.217900,917.478820,98.476730,916.698670,98.500040C915.741580,98.528630,914.849610,98.885030,914.253360,99.074710C913.097230,99.442490,912.280950,99.439170,911.509830,99.552710C910.635990,99.681370,909.924200,100.199100,909.015990,100.414710C908.172300,100.615000,907.084170,100.385690,906.299990,100.784040C905.640810,101.118890,904.785340,101.499370,903.852660,101.500040C903,101.500650,902.074640,101.500040,901.138300,101.500040C900.333310,101.500040,899.479180,101.493510,898.499990,101.500040C897.699940,101.505370,896.886710,101.539840,895.900010,101.852710C895.087330,102.110410,894.304120,102.420400,893.499990,102.479210C892.502430,102.552160,891.520800,102.500050,890.666680,102.500050C889.804500,102.500050,888.900020,102.500050,887.999990,102.500050C887.110650,102.500050,886.281850,102.724560,885.621330,103.378720C885.066640,103.928060,884.246330,104.289100,883.400020,104.721390C882.744690,105.056120,881.949640,105.463970,880.957150,105.721550C880.231380,105.909910,879.439080,106.181640,878.421510,106.600050C877.729490,106.884610,877.104070,107.199140,876.099980,107.700050C875.299630,108.099330,874.507020,108.514570,873.710700,108.889390C872.991460,109.227940,872.021000,109.489630,871.099980,109.500050C870.204590,109.510180,869.333320,109.500050,868.442810,109.500050C867.552670,109.500050,866.666690,109.500050,865.795470,109.500050C864.900020,109.500050,864.089350,109.500050,863.178650,109.500050C862.325320,109.500050,861.383970,109.500050,860.616030,109.500050C859.674680,109.500050,858.666630,109.510930,857.804510,109.500050C856.979010,109.489630,856.023200,109.198250,855.325320,108.925380C854.394350,108.561390,853.500000,108.500050,852.700010,108.500050C851.785340,108.500050,850.852660,108.500050,850,108.500050C849.074650,108.500050,848.078670,108.299530,847.333310,108.666710C846.580320,109.037630,845.881830,109.490840,845.099970,109.925380C844.280700,110.380730,843.700620,111.005360,843.074640,111.464050C842.334100,112.006680,841.774290,112.389240,840.999990,112.979220C840.265800,113.538630,839.625360,114.040750,838.979180,114.500060C838.282100,114.995570,837.326650,115.135710,836.525320,115.510730C835.755420,115.871040,835.111200,116.482060,834.215990,116.500060C833.278670,116.518910,832.400010,116.500060,831.499990,116.500060C830.621330,116.500060,829.776720,116.678560,828.935960,116.500060C828.086840,116.319790,827.185720,116.071970,826.520800,115.479220C825.855580,114.886200,825.447310,114.500060,824.499990,114.500060C823.666680,114.500060,822.788930,114.605840,821.935960,114.500060C821.036730,114.388540,820.417100,113.729260,819.449330,113.510730C818.648060,113.329800,817.896290,113.541350,816.904470,113.495560C815.982780,113.453020,815.293630,112.805330,814.416010,112.501400C813.550410,112.201630,812.621330,112.500060,811.795470,112.500060C810.900020,112.500060,809.986940,112.642380,809.099970,112.489390C808.268120,112.345910,807.587460,111.542790,806.795470,111.500060C805.901300,111.451820,805,111.500060,804.099970,111.500060C803.200010,111.500060,802.299980,111.500060,801.400140,111.500060C800.499990,111.500060,799.698240,111.472850,798.799980,111.500060C797.855890,111.528650,797.432850,112.273560,796.552670,112.500060C795.679560,112.724730,795.479370,113.489640,794.583980,113.500060C793.795530,113.509240,792.857170,113.500060,792,113.500060C791.074650,113.500060,790.147340,113.500060,789.278690,113.500060C788.333320,113.500060,787.500000,113.500060,786.700020,113.500060C785.742870,113.500060,784.847360,113.500060,783.984020,113.500060C783.125320,113.500060,782.178660,113.500060,781.325330,113.500060C780.385330,113.500060,779.500010,113.500060,778.585340,113.500060C777.784010,113.500060,776.852670,113.500060,775.979200,113.500060C775.099990,113.500060,774.200030,113.500060,773.300000,113.500060C772.400040,113.500060,771.500010,113.500060,770.700020,113.500060C769.785350,113.500060,768.852670,113.500060,768.000010,113.500060C767.064040,113.500060,766.193490,113.393120,765.300000,113.501400C764.380080,113.612880,763.766370,114.230300,762.842850,114.447400C762.108170,114.620110,761.105060,114.798420,760.300000,115.074730C759.504770,115.347670,758.691480,115.424320,757.900040,115.584060C756.885030,115.788910,756.118910,116.232310,755.099990,116.414730C754.309100,116.556320,753.297380,116.452710,752.500010,116.520900C751.493110,116.607010,750.695020,116.872550,750.070690,117.216070C749.170600,117.711290,748.436290,118.131860,747.621350,118.500230C746.879830,118.835400,746.205880,119.471470,745.278700,119.500060C744.333750,119.529200,743.461740,119.326510,742.700030,119.585390C741.812150,119.887160,741.141310,120.513890,740.479200,121.000060C739.813980,121.488520,739.069900,121.476380,738.099990,121.785390C737.277110,122.047540,736.305130,122.610220,735.710710,122.889390C734.991170,123.227330,733.890460,123.327480,733.000020,123.520890C732.153650,123.704730,731.512650,124.415020,730.700030,124.498720C729.804770,124.590940,728.900040,124.500060,728.000020,124.500060C727.100000,124.500060,726.204550,124.500060,725.278710,124.500060C724.333340,124.500060,723.474690,124.500060,722.698690,124.500060C721.800010,124.500060,720.900040,124.500060,719.935990,124.500060C719.074660,124.500060,718.122510,124.317610,717.301350,124.501400C716.494340,124.682020,715.987260,125.355160,715.142840,125.504570C714.269730,125.659050,713.529440,126.366190,713.000020,127.000070C712.437340,127.673780,712.139360,128.401220,711.204550,128.500070C710.443010,128.580610,710.100610,129.383140,709.698690,130.017400C709.148270,130.885960,708.082300,131.168100,707.557210,131.852730C707.043420,132.522620,706.759050,133.191960,706.074670,133.925410C705.478910,134.563850,705.408780,135.408110,704.925380,136.074730C704.404870,136.792550,704.500030,137.721400,704.500030,138.666740C704.500030,139.500070,704.016940,140.107260,703.585360,140.785410C703.092870,141.559310,703.327360,142.464410,702.852690,143.204570C702.397730,143.913980,702.082550,144.700340,701.666720,145.500070C701.279940,146.243890,701.017490,147.153970,700.525360,147.889400C700.077360,148.558860,699.339940,148.930290,698.784030,149.584070C698.261750,150.198250,697.892060,151.102720,697.300020,151.700070C696.702730,152.302750,695.964270,152.994750,695.500030,153.666740C695.053680,154.312810,694.647120,155.126790,694.016020,155.898730C693.524440,156.500030,692.952540,156.984770,692.136020,157.874730C691.683320,158.368110,691.126500,159.341450,690.700050,160.016070C690.228680,160.761750,689.500040,161.500050,688.936010,162.064060C688.278720,162.721380,687.771520,163.362090,687.500040,164.147400C687.242410,164.892700,686.500040,165.557220,686.500040,166.447390C686.500040,167.301390,686.616070,168.150150,686.500040,169.074720C686.388530,169.963530,685.925390,170.649400,685.500040,171.500060C685.147380,172.205400,684.659160,173.163010,684.278730,173.942900C683.918200,174.681930,683.674600,175.492480,683.416060,176.384060C683.188830,177.167550,682.810770,177.857660,682.204570,178.742890C681.679790,179.509170,681.507490,180.279970,681.142860,181.152730C680.843480,181.869370,680.210180,182.752190,679.700050,183.298730C679.033850,184.012440,678.785870,184.873930,678.414710,185.584070C678.001140,186.375380,676.964210,186.717840,676.510720,187.525400C676.077740,188.296440,675.740460,188.813750,675.498700,189.698740C675.280740,190.496500,674.715370,191.007820,674.278730,191.721400C673.793620,192.514260,673.059060,192.745590,672.333360,193.333400C671.635910,193.898310,670.834280,194.137110,670.489370,194.936080C670.122730,195.785340,669.489800,196.390930,669.000050,197.000080C668.416980,197.725330,667.989670,198.360480,667.495530,198.852740C666.963490,199.382770,666.339950,199.930300,665.784040,200.584080C665.261760,201.198260,665.017500,202.153980,664.525370,202.889410C664.077370,203.558870,663.268170,203.954550,662.784040,204.584080C662.229110,205.305640,661.950420,206.100770,661.278550,206.721410C660.718670,207.238580,659.785390,207.499410,658.925400,207.500080C658.000050,207.500800,657.065050,207.371880,656.216050,207.500080C655.474840,207.612000,655.100020,208.217580,654.204580,208.504580C653.443720,208.748450,652.949270,209.440170,652.200060,209.852740C651.361500,210.314530,650.816640,210.897750,650.142870,211.447410C649.440600,212.020350,648.533190,212.023290,647.852710,212.500080C647.300520,212.886980,647.445670,213.887130,646.925400,214.525410C646.400680,215.169180,645.993940,215.996680,645.548200,216.800080C645.161420,217.497160,644.446940,217.951050,643.666730,218.500080C643.012190,218.960700,642.669110,219.852700,642.216050,220.700080C641.867420,221.352090,641.131330,221.812810,640.585370,222.501410C640.065780,223.156790,639.911790,223.643580,639.499860,224.378740C639.110090,225.074400,638.578900,225.840260,638.074690,226.474750C637.590740,227.083710,637.639510,227.968480,637.216050,228.698750C636.736920,229.525040,636.536240,230.266030,636.000050,230.979250C635.424550,231.744720,635.018850,232.439440,634.447380,233.142920C633.945060,233.761240,633.378530,234.279550,632.925410,235.100090C632.499930,235.870540,632.500060,236.857250,632.500060,237.698750C632.500060,238.584080,631.952330,239.168170,631.557250,239.852740C631.090880,240.660910,631.500060,241.666750,631.500060,242.552750C631.500060,243.500080,631.500060,244.333400,631.500060,245.204570C631.500060,246.100080,631.500060,246.979240,631.500060,247.852730C631.500060,248.784070,631.500060,249.666740,631.500060,250.599910C631.500060,251.464080,631.500060,252.301400,631.500060,253.142910C631.500060,254.074730,631.500060,254.936080,631.500060,255.889400C631.500060,256.784070,631.500060,257.666730,631.500060,258.557230C631.500060,259.464060,631.500060,260.333410,631.500060,261.147410C631.500060,262.110730,631.500060,262.979230,631.500060,263.852730C631.500060,264.784070,631.500060,265.666730,631.500060,266.557230C631.500060,267.464060,631.500060,268.333410,631.500060,269.147410C631.500060,270.074750,630.915890,270.456680,630.510740,271.074750C630.039980,271.792860,629.474790,272.494730,628.584040,272.500070C627.666740,272.505560,626.852720,272.500070,625.925410,272.500070C625.074700,272.500070,624.142570,272.408670,623.278740,272.500070C622.486870,272.583870,622.185480,273.247840,621.278740,273.500220C620.501210,273.716650,619.986990,274.288730,619.216060,274.784060C618.508720,275.238530,617.726680,275.416480,617.074700,275.925390C616.370290,276.475190,615.909230,277.317660,615.074700,277.500070C614.168760,277.698100,613.686270,278.226140,613.074700,278.500070C612.228390,278.879130,611.278740,278.500070,610.414730,278.500070C609.489380,278.500070,608.954830,278.949040,608.216060,279.414740C607.465880,279.887640,606.439020,279.417430,605.552730,279.500070C604.655090,279.583750,604.479430,280.489630,603.585380,280.500070C602.784110,280.509410,602.142810,281.078380,601.301380,281.414740C600.462940,281.749910,599.862350,282.169170,599.064080,282.510750C598.209770,282.876290,597.337820,283.165290,596.584040,283.501410C595.868100,283.820620,595.100580,284.482060,594.204580,284.500070C593.333550,284.517590,592.447380,284.500070,591.552720,284.500070C590.666730,284.500070,589.852710,284.500070,588.979230,284.500070C588.020860,284.500070,587.147380,284.500070,586.166730,284.500070C585.500040,284.500070,584.442850,284.500070,583.552720,284.500070C582.666730,284.500070,581.889390,284.500070,580.936020,284.500070C580.064070,284.500070,579.110700,284.500070,578.216050,284.500070C577.333360,284.500070,576.442860,284.500070,575.552720,284.500070C574.666730,284.500070,573.771710,284.121010,572.925400,284.500070C572.313830,284.774000,571.852710,285.492900,571.000050,285.500070C570.074700,285.507850,569.563400,286.274790,568.795520,286.495580C567.969470,286.733070,566.919910,286.336950,566.216050,286.784060C565.462390,287.262820,564.956650,287.726720,564.278730,288.378730C563.699020,288.936290,563.007610,289.379160,562.495530,289.852730C561.909100,290.395060,561.389820,291.030160,560.584030,291.414740C559.857960,291.761270,559.210560,292.167940,558.333360,292.500070C557.503040,292.814430,556.829210,293.099560,556.074690,293.500070C555.479170,293.816200,555.127610,294.247140,554.333360,294.666730C553.646470,295.029610,553.338490,296.151650,552.464040,296.500070C551.621630,296.835730,551.108690,297.239660,550.216050,297.500070C549.316270,297.762580,548.446270,297.556100,547.852710,298.147410C547.214830,298.782850,546.535450,299.451580,545.666740,299.500070C544.851980,299.545540,544.507740,300.439100,543.784050,300.500070C542.928460,300.572150,541.938290,300.178200,541.074700,300.510750C540.385060,300.776340,540.074700,301.500070,539.147390,301.500070C538.278740,301.500070,537.416070,301.500070,536.489370,301.500070C535.621390,301.500070,534.784050,301.500070,533.852710,301.500070C533.000050,301.500070,532.074690,301.500070,531.147390,301.500070C530.278740,301.500070,529.414720,301.500160,528.500050,301.500070C527.621390,301.499980,527.000050,301.000070,526.278740,300.278730C525.666740,299.666730,524.925410,299.505410,524.000050,299.500070C523.074630,299.494730,522.618950,298.782940,521.852710,298.504560C520.980330,298.187600,520.501330,297.680070,519.621570,297.500070C518.801010,297.332190,518.214280,296.822310,517.333360,296.500070C516.526290,296.204840,515.869310,296.020820,515.074690,295.489390C514.447310,295.069800,513.854480,294.536450,513.110700,294.074750C512.289410,293.564890,511.464830,293.377240,510.857220,292.852730C510.099740,292.198830,509.536630,291.518070,508.698710,291.500070C507.857400,291.481970,507.233650,290.808080,506.416030,290.501410C505.558390,290.179720,504.587940,290.682990,503.795550,290.442910C502.941580,290.184150,502.278550,289.500070,501.400040,289.500070C500.500050,289.500070,499.584060,289.500070,498.784040,289.500070C497.852700,289.500070,497.000040,289.500070,496.074720,289.500070C495.142870,289.500070,494.301370,289.500070,493.333390,289.500070C492.613390,289.500070,491.685380,289.500070,490.742720,289.500070C489.790210,289.500070,489.148210,289.500070,488.041700,289.500070C487.166700,289.500070,486.254710,289.627450,485.386700,289.216070C484.718580,288.899420,484.062570,288.325720,483.447370,287.852730C482.735300,287.305280,482.000040,287.000070,481.333390,286.333410C480.666700,285.666720,479.856340,285.623880,479.147390,285.147410C478.378680,284.630780,477.617300,284.456980,477.000050,284.000070C476.252670,283.446850,475.439590,283.201000,474.784050,282.784070C474.080440,282.336590,472.992270,282.695200,472.278710,282.278730C471.476040,281.810250,471.387510,280.960800,470.621390,280.499920C469.938070,280.088880,469.333400,279.333420,468.784050,278.784070C468.074730,278.074750,467.881310,277.221970,467.278710,276.621560C466.708000,276.052900,466.196890,275.701910,465.333400,275.500070C464.554290,275.317970,464.206510,274.786600,463.447380,274.442910C462.684140,274.097360,461.919880,273.663190,461.216060,273.216070C460.462430,272.737310,459.784050,272.500070,458.889400,272.500070C458.000060,272.500070,457.110710,272.489390,456.500060,272.000070C455.889400,271.510750,455.000060,271.500070,454.020900,271.500070C453.142880,271.500070,452.204370,271.518320,451.333400,271.500070C450.474150,271.482060,449.909660,270.680460,449.074730,270.500070C448.234120,270.318430,447.297810,270.579630,446.416040,270.500070C445.488790,270.416390,444.913170,269.680340,444.064050,269.500070C443.223290,269.321570,442.278710,269.500070,441.416040,269.500070C440.500050,269.500070,439.698720,269.500800,438.785390,269.500070C437.930710,269.499400,437.073690,269.603220,436.146720,269.074750C435.362850,268.627850,434.500050,268.500070,433.700060,268.500070C432.857230,268.500070,431.979200,268.500070,431.020890,268.500070C430.147390,268.500070,429.216050,268.500070,428.333390,268.500070C427.447370,268.500070,426.557210,268.500070,425.666700,268.500070C424.852700,268.500070,423.925370,268.500070,423.000040,268.500070C422.147380,268.500070,421.831670,268.994240,421.278700,269.500070C420.691150,270.037550,420.500040,270.500070,420.500040,271.416060C420.500040,272.216080,420.500040,273.147410,420.500040,274.000070C420.500040,274.925390,420.500040,275.852730,420.500040,276.721410C420.500040,277.666720,420.500040,278.520910,420.500040,279.416050C420.500040,280.216070,420.790200,281.198280,420.500040,282.000060C420.273870,282.625000,419.645820,283.153560,419.147380,283.852720C418.624430,284.586240,417.890300,284.752930,417.464030,285.525390C417.042640,286.288970,416.474250,286.912840,416.000040,287.500060C415.487860,288.134310,414.909980,288.807950,414.500040,289.557220C414.091750,290.303470,414.111400,290.847010,413.479200,291.479220C412.847000,292.111420,412.177350,291.843230,411.557200,292.500060C410.964820,293.127470,410.462530,293.211330,409.621530,293.500060C408.851630,293.764370,408.205850,294.471470,407.278700,294.500060C406.415110,294.526700,405.848550,294.810120,405.414720,295.585390C405.026600,296.278990,404.003430,296.403410,403.495560,296.852720C402.897290,297.381990,402.147380,297.500060,401.216050,297.500060C400.278700,297.500060,399.442890,297.500060,398.520890,297.500060C397.621540,297.500060,397.497090,298.320040,396.621540,298.500060C395.801200,298.668730,394.852710,298.557220,394.416030,299.216060L393.557200,299.500060" fill="none" stroke="rgb(0,0,0)" stroke-width="1"/><g id="ejdlw9yk25fs3"><circle id="ejdlw9yk25fs4" r="5" transform="matrix(1 0 0 1 1012.10000000000002 84.08046112000005)" fill="rgb(35,31,32)" stroke="none" stroke-width="1"/><text id="ejdlw9yk25fs5" dx="0" dy="0" font-family="Gotham Bold" font-size="13" transform="matrix(1 0 0 1 0 21.25190000000000)" fill="rgb(255,255,255)" stroke="none" stroke-width="1"/></g><script><![CDATA[!function(t,n){"object"==typeof exports&&"undefined"!=typeof module?module.exports=n():"function"==typeof define&&define.amd?define(n):(t="undefined"!=typeof globalThis?globalThis:t||self).__SVGATOR_PLAYER__=n()}(this,(function(){"use strict";function t(n){return(t="function"==typeof Symbol&&"symbol"==typeof Symbol.iterator?function(t){return typeof t}:function(t){return t&&"function"==typeof Symbol&&t.constructor===Symbol&&t!==Symbol.prototype?"symbol":typeof t})(n)}function n(t,n){if(!(t instanceof n))throw new TypeError("Cannot call a class as a function")}function r(t,n){for(var r=0;r<n.length;r++){var e=n[r];e.enumerable=e.enumerable||!1,e.configurable=!0,"value"in e&&(e.writable=!0),Object.defineProperty(t,e.key,e)}}function e(t,n,e){return n&&r(t.prototype,n),e&&r(t,e),t}function i(t){return(i=Object.setPrototypeOf?Object.getPrototypeOf:function(t){return t.__proto__||Object.getPrototypeOf(t)})(t)}function u(t,n){return(u=Object.setPrototypeOf||function(t,n){return t.__proto__=n,t})(t,n)}function o(t,n){return!n||"object"!=typeof n&&"function"!=typeof n?function(t){if(void 0===t)throw new ReferenceError("this hasn't been initialised - super() hasn't been called");return t}(t):n}function a(t){var n=function(){if("undefined"==typeof Reflect||!Reflect.construct)return!1;if(Reflect.construct.sham)return!1;if("function"==typeof Proxy)return!0;try{return Boolean.prototype.valueOf.call(Reflect.construct(Boolean,[],(function(){}))),!0}catch(t){return!1}}();return function(){var r,e=i(t);if(n){var u=i(this).constructor;r=Reflect.construct(e,arguments,u)}else r=e.apply(this,arguments);return o(this,r)}}function l(t,n,r){return(l="undefined"!=typeof Reflect&&Reflect.get?Reflect.get:function(t,n,r){var e=function(t,n){for(;!Object.prototype.hasOwnProperty.call(t,n)&&null!==(t=i(t)););return t}(t,n);if(e){var u=Object.getOwnPropertyDescriptor(e,n);return u.get?u.get.call(r):u.value}})(t,n,r||t)}var f=Math.abs;function s(t){return t}function c(t,n,r){var e=1-r;return 3*r*e*(t*e+n*r)+r*r*r}function h(){var t=arguments.length>0&&void 0!==arguments[0]?arguments[0]:0,n=arguments.length>1&&void 0!==arguments[1]?arguments[1]:0,r=arguments.length>2&&void 0!==arguments[2]?arguments[2]:1,e=arguments.length>3&&void 0!==arguments[3]?arguments[3]:1;return t<0||t>1||r<0||r>1?null:f(t-n)<=1e-5&&f(r-e)<=1e-5?s:function(i){if(i<=0)return t>0?i*n/t:0===n&&r>0?i*e/r:0;if(i>=1)return r<1?1+(i-1)*(e-1)/(r-1):1===r&&t<1?1+(i-1)*(n-1)/(t-1):1;for(var u,o=0,a=1;o<a;){var l=c(t,r,u=(o+a)/2);if(f(i-l)<1e-5)break;l<i?o=u:a=u}return c(n,e,u)}}function v(){return 1}function y(t){return 1===t?1:0}function d(){var t=arguments.length>0&&void 0!==arguments[0]?arguments[0]:1,n=arguments.length>1&&void 0!==arguments[1]?arguments[1]:0;if(1===t){if(0===n)return y;if(1===n)return v}var r=1/t;return function(t){return t>=1?1:(t+=n*r)-t%r}}function g(t){var n=arguments.length>1&&void 0!==arguments[1]?arguments[1]:2;if(Number.isInteger(t))return t;var r=Math.pow(10,n);return Math.round(t*r)/r}var p=Math.PI/180;function m(t,n,r){return t>=.5?r:n}function b(t,n,r){return 0===t||n===r?n:t*(r-n)+n}function w(t,n,r){var e=b(t,n,r);return e<=0?0:e}function x(t,n,r){return 0===t?n:1===t?r:{x:b(t,n.x,r.x),y:b(t,n.y,r.y)}}function A(t,n,r){return 0===t?n:1===t?r:{x:w(t,n.x,r.x),y:w(t,n.y,r.y)}}function k(t,n,r){var e=function(t,n,r){return Math.round(b(t,n,r))}(t,n,r);return e<=0?0:e>=255?255:e}function _(t,n,r){return 0===t?n:1===t?r:{r:k(t,n.r,r.r),g:k(t,n.g,r.g),b:k(t,n.b,r.b),a:b(t,null==n.a?1:n.a,null==r.a?1:r.a)}}function S(t,n,r){if(0===t)return n;if(1===t)return r;var e=n.length;if(e!==r.length)return m(t,n,r);for(var i=[],u=0;u<e;u++)i.push(_(t,n[u],r[u]));return i}function O(t,n,r){var e=n.length;if(e!==r.length)return m(t,n,r);for(var i=new Array(e),u=0;u<e;u++)i[u]=b(t,n[u],r[u]);return i}function M(t,n){for(var r=[],e=0;e<t;e++)r.push(n);return r}function B(t,n){if(--n<=0)return t;var r=(t=Object.assign([],t)).length;do{for(var e=0;e<r;e++)t.push(t[e])}while(--n>0);return t}var I,j=function(){function t(r){n(this,t),this.list=r,this.length=r.length}return e(t,[{key:"setAttribute",value:function(t,n){for(var r=this.list,e=0;e<this.length;e++)r[e].setAttribute(t,n)}},{key:"removeAttribute",value:function(t){for(var n=this.list,r=0;r<this.length;r++)n[r].removeAttribute(t)}},{key:"style",value:function(t,n){for(var r=this.list,e=0;e<this.length;e++)r[e].style[t]=n}}]),t}(),E=/-./g,F=function(t,n){return n.toUpperCase()};function P(t){return"function"==typeof t?t:m}function R(t){return t?"function"==typeof t?t:Array.isArray(t)?function(t){var n=arguments.length>1&&void 0!==arguments[1]?arguments[1]:s;if(!Array.isArray(t))return n;switch(t.length){case 1:return d(t[0])||n;case 2:return d(t[0],t[1])||n;case 4:return h(t[0],t[1],t[2],t[3])||n}return n}(t,null):function(t,n){var r=arguments.length>2&&void 0!==arguments[2]?arguments[2]:s;switch(t){case"linear":return s;case"steps":return d(n.steps||1,n.jump||0)||r;case"bezier":case"cubic-bezier":return h(n.x1||0,n.y1||0,n.x2||0,n.y2||0)||r}return r}(t.type,t.value,null):null}function q(t,n,r){var e=arguments.length>3&&void 0!==arguments[3]&&arguments[3],i=n.length-1;if(t<=n[0].t)return e?[0,0,n[0].v]:n[0].v;if(t>=n[i].t)return e?[i,1,n[i].v]:n[i].v;var u,o=n[0],a=null;for(u=1;u<=i;u++){if(!(t>n[u].t)){a=n[u];break}o=n[u]}return null==a?e?[i,1,n[i].v]:n[i].v:o.t===a.t?e?[u,1,a.v]:a.v:(t=(t-o.t)/(a.t-o.t),o.e&&(t=o.e(t)),e?[u,t,r(t,o.v,a.v)]:r(t,o.v,a.v))}function T(t,n){var r=arguments.length>2&&void 0!==arguments[2]?arguments[2]:null;return t&&t.length?"function"!=typeof n?null:("function"!=typeof r&&(r=null),function(e){var i=q(e,t,n);return null!=i&&r&&(i=r(i)),i}):null}function N(t,n){return t.t-n.t}function C(n,r,e,i,u){var o,a="@"===e[0],l="#"===e[0],f=I[e],s=m;switch(a?(o=e.substr(1),e=o.replace(E,F)):l&&(e=e.substr(1)),t(f)){case"function":if(s=f(i,u,q,R,e,a,r,n),l)return s;break;case"string":s=T(i,P(f));break;case"object":if((s=T(i,P(f.i),f.f))&&"function"==typeof f.u)return f.u(r,s,e,a,n)}return s?function(t,n,r){var e=arguments.length>3&&void 0!==arguments[3]&&arguments[3];if(e)return t instanceof j?function(e){return t.style(n,r(e))}:function(e){return t.style[n]=r(e)};if(Array.isArray(n)){var i=n.length;return function(e){var u=r(e);if(null==u)for(var o=0;o<i;o++)t[o].removeAttribute(n);else for(var a=0;a<i;a++)t[a].setAttribute(n,u)}}return function(e){var i=r(e);null==i?t.removeAttribute(n):t.setAttribute(n,i)}}(r,e,s,a):null}function z(n,r,e,i){if(!i||"object"!==t(i))return null;var u=null,o=null;return Array.isArray(i)?o=function(t){if(!t||!t.length)return null;for(var n=0;n<t.length;n++)t[n].e&&(t[n].e=R(t[n].e));return t.sort(N)}(i):(o=i.keys,u=i.data||null),o?C(n,r,e,o,u):null}function L(t,n,r){if(!r)return null;var e=[];for(var i in r)if(r.hasOwnProperty(i)){var u=z(t,n,i,r[i]);u&&e.push(u)}return e.length?e:null}function D(t,n){if(!n.duration||n.duration<0)return null;var r=function(t,n){if(!n)return null;var r=[];if(Array.isArray(n))for(var e=n.length,i=0;i<e;i++){var u=n[i];if(2===u.length){var o=null;if("string"==typeof u[0])o=t.getElementById(u[0]);else if(Array.isArray(u[0])){o=[];for(var a=0;a<u[0].length;a++)if("string"==typeof u[0][a]){var l=t.getElementById(u[0][a]);l&&o.push(l)}o=o.length?1===o.length?o[0]:new j(o):null}if(o){var f=L(t,o,u[1]);f&&(r=r.concat(f))}}}else for(var s in n)if(n.hasOwnProperty(s)){var c=t.getElementById(s);if(c){var h=L(t,c,n[s]);h&&(r=r.concat(h))}}return r.length?r:null}(t,n.elements);return r?function(t,n){var r=arguments.length>2&&void 0!==arguments[2]?arguments[2]:1/0,e=arguments.length>3&&void 0!==arguments[3]?arguments[3]:1,i=arguments.length>4&&void 0!==arguments[4]&&arguments[4],u=arguments.length>5&&void 0!==arguments[5]?arguments[5]:1,o=t.length,a=e>0?n:0;i&&r%2==0&&(a=n-a);var l=null;return function(f,s){var c=f%n,h=1+(f-c)/n;s*=e,i&&h%2==0&&(s=-s);var v=!1;if(h>r)c=a,v=!0,-1===u&&(c=e>0?0:n);else if(s<0&&(c=n-c),c===l)return!1;l=c;for(var y=0;y<o;y++)t[y](c);return v}}(r,n.duration,n.iterations||1/0,n.direction||1,!!n.alternate,n.fill||1):null}var V=function(){function t(r,e){var i=arguments.length>2&&void 0!==arguments[2]?arguments[2]:{};n(this,t),this._id=0,this._running=!1,this._rollingBack=!1,this._animations=r,this.duration=e.duration,this.alternate=e.alternate,this.fill=e.fill,this.iterations=e.iterations,this.direction=i.direction||1,this.speed=i.speed||1,this.fps=i.fps||100,this.offset=i.offset||0,this.rollbackStartOffset=0}return e(t,[{key:"_rollback",value:function(){var t=this,n=1/0,r=null;this.rollbackStartOffset=this.offset,this._rollingBack||(this._rollingBack=!0,this._running=!0);this._id=window.requestAnimationFrame((function e(i){if(t._rollingBack){null==r&&(r=i);var u=i-r,o=t.rollbackStartOffset-u,a=Math.round(o*t.speed);if(a>t.duration&&n!=1/0){var l=!!t.alternate&&a/t.duration%2>1,f=a%t.duration;a=(f+=l?t.duration:0)||t.duration}var s=t.fps?1e3/t.fps:0,c=Math.max(0,a);if(c<n-s){t.offset=c,n=c;for(var h=t._animations,v=h.length,y=0;y<v;y++)h[y](c,t.direction)}var d=!1;if(t.iterations>0&&-1===t.fill){var g=t.iterations*t.duration,p=g==a;a=p?0:a,t.offset=p?0:t.offset,d=a>g}a>0&&t.offset>=a&&!d?t._id=window.requestAnimationFrame(e):t.stop()}}))}},{key:"_start",value:function(){var t=this,n=arguments.length>0&&void 0!==arguments[0]?arguments[0]:0,r=-1/0,e=null,i={},u=function u(o){t._running=!0,null==e&&(e=o);var a=Math.round((o-e+n)*t.speed),l=t.fps?1e3/t.fps:0;if(a>r+l&&!t._rollingBack){t.offset=a,r=a;for(var f=t._animations,s=f.length,c=0,h=0;h<s;h++)i[h]?c++:(i[h]=f[h](a,t.direction),i[h]&&c++);if(c===s)return void t._stop()}t._id=window.requestAnimationFrame(u)};this._id=window.requestAnimationFrame(u)}},{key:"_stop",value:function(){this._id&&window.cancelAnimationFrame(this._id),this._running=!1,this._rollingBack=!1}},{key:"play",value:function(){!this._rollingBack&&this._running||(this._rollingBack=!1,this.rollbackStartOffset>this.duration&&(this.offset=this.rollbackStartOffset-(this.rollbackStartOffset-this.offset)%this.duration,this.rollbackStartOffset=0),this._start(this.offset))}},{key:"stop",value:function(){this._stop(),this.offset=0,this.rollbackStartOffset=0;var t=this.direction,n=this._animations;window.requestAnimationFrame((function(){for(var r=0;r<n.length;r++)n[r](0,t)}))}},{key:"reachedToEnd",value:function(){return this.iterations>0&&this.offset>=this.iterations*this.duration}},{key:"restart",value:function(){this._stop(),this.offset=0,this._start()}},{key:"pause",value:function(){this._stop()}},{key:"reverse",value:function(){this.direction=-this.direction}}],[{key:"build",value:function(n,r){return(n=function(t,n){if(I=n,!t||!t.root||!Array.isArray(t.animations))return null;for(var r=document.getElementsByTagName("svg"),e=!1,i=0;i<r.length;i++)if(r[i].id===t.root&&!r[i].svgatorAnimation){(e=r[i]).svgatorAnimation=!0;break}if(!e)return null;var u=t.animations.map((function(t){return D(e,t)})).filter((function(t){return!!t}));return u.length?{element:e,animations:u,animationSettings:t.animationSettings,options:t.options||void 0}:null}(n,r))?{el:n.element,options:n.options||{},player:new t(n.animations,n.animationSettings,n.options)}:null}}]),t}();!function(){for(var t=0,n=["ms","moz","webkit","o"],r=0;r<n.length&&!window.requestAnimationFrame;++r)window.requestAnimationFrame=window[n[r]+"RequestAnimationFrame"],window.cancelAnimationFrame=window[n[r]+"CancelAnimationFrame"]||window[n[r]+"CancelRequestAnimationFrame"];window.requestAnimationFrame||(window.requestAnimationFrame=function(n){var r=Date.now(),e=Math.max(0,16-(r-t)),i=window.setTimeout((function(){n(r+e)}),e);return t=r+e,i},window.cancelAnimationFrame=window.clearTimeout)}();var G=/\.0+$/g;function Q(t){return Number.isInteger(t)?t+"":t.toFixed(6).replace(G,"")}function U(t){var n=arguments.length>1&&void 0!==arguments[1]?arguments[1]:" ";return t&&t.length?t.map(Q).join(n):""}function $(t){return Q(t.x)+","+Q(t.y)}function H(t){return t?null==t.a||t.a>=1?"rgb("+t.r+","+t.g+","+t.b+")":"rgba("+t.r+","+t.g+","+t.b+","+t.a+")":"transparent"}var Y={f:null,i:A,u:function(t,n){return function(r){var e=n(r);t.setAttribute("rx",Q(e.x)),t.setAttribute("ry",Q(e.y))}}},Z={f:null,i:function(t,n,r){return 0===t?n:1===t?r:{width:w(t,n.width,r.width),height:w(t,n.height,r.height)}},u:function(t,n){return function(r){var e=n(r);t.setAttribute("width",Q(e.width)),t.setAttribute("height",Q(e.height))}}},J=Math.sin,K=Math.cos,W=Math.acos,X=Math.asin,tt=Math.tan,nt=Math.atan2,rt=Math.PI/180,et=180/Math.PI,it=Math.sqrt,ut=function(){function t(){var r=arguments.length>0&&void 0!==arguments[0]?arguments[0]:1,e=arguments.length>1&&void 0!==arguments[1]?arguments[1]:0,i=arguments.length>2&&void 0!==arguments[2]?arguments[2]:0,u=arguments.length>3&&void 0!==arguments[3]?arguments[3]:1,o=arguments.length>4&&void 0!==arguments[4]?arguments[4]:0,a=arguments.length>5&&void 0!==arguments[5]?arguments[5]:0;n(this,t),this.m=[r,e,i,u,o,a],this.i=null,this.w=null,this.s=null}return e(t,[{key:"determinant",get:function(){var t=this.m;return t[0]*t[3]-t[1]*t[2]}},{key:"isIdentity",get:function(){if(null===this.i){var t=this.m;this.i=1===t[0]&&0===t[1]&&0===t[2]&&1===t[3]&&0===t[4]&&0===t[5]}return this.i}},{key:"point",value:function(t,n){var r=this.m;return{x:r[0]*t+r[2]*n+r[4],y:r[1]*t+r[3]*n+r[5]}}},{key:"translateSelf",value:function(){var t=arguments.length>0&&void 0!==arguments[0]?arguments[0]:0,n=arguments.length>1&&void 0!==arguments[1]?arguments[1]:0;if(!t&&!n)return this;var r=this.m;return r[4]+=r[0]*t+r[2]*n,r[5]+=r[1]*t+r[3]*n,this.w=this.s=this.i=null,this}},{key:"rotateSelf",value:function(){var t=arguments.length>0&&void 0!==arguments[0]?arguments[0]:0;if(t%=360){var n=J(t*=rt),r=K(t),e=this.m,i=e[0],u=e[1];e[0]=i*r+e[2]*n,e[1]=u*r+e[3]*n,e[2]=e[2]*r-i*n,e[3]=e[3]*r-u*n,this.w=this.s=this.i=null}return this}},{key:"scaleSelf",value:function(){var t=arguments.length>0&&void 0!==arguments[0]?arguments[0]:1,n=arguments.length>1&&void 0!==arguments[1]?arguments[1]:1;if(1!==t||1!==n){var r=this.m;r[0]*=t,r[1]*=t,r[2]*=n,r[3]*=n,this.w=this.s=this.i=null}return this}},{key:"skewSelf",value:function(t,n){if(n%=360,(t%=360)||n){var r=this.m,e=r[0],i=r[1],u=r[2],o=r[3];t&&(t=tt(t*rt),r[2]+=e*t,r[3]+=i*t),n&&(n=tt(n*rt),r[0]+=u*n,r[1]+=o*n),this.w=this.s=this.i=null}return this}},{key:"resetSelf",value:function(){var t=arguments.length>0&&void 0!==arguments[0]?arguments[0]:1,n=arguments.length>1&&void 0!==arguments[1]?arguments[1]:0,r=arguments.length>2&&void 0!==arguments[2]?arguments[2]:0,e=arguments.length>3&&void 0!==arguments[3]?arguments[3]:1,i=arguments.length>4&&void 0!==arguments[4]?arguments[4]:0,u=arguments.length>5&&void 0!==arguments[5]?arguments[5]:0,o=this.m;return o[0]=t,o[1]=n,o[2]=r,o[3]=e,o[4]=i,o[5]=u,this.w=this.s=this.i=null,this}},{key:"recomposeSelf",value:function(){var t=arguments.length>0&&void 0!==arguments[0]?arguments[0]:null,n=arguments.length>1&&void 0!==arguments[1]?arguments[1]:null,r=arguments.length>2&&void 0!==arguments[2]?arguments[2]:null,e=arguments.length>3&&void 0!==arguments[3]?arguments[3]:null,i=arguments.length>4&&void 0!==arguments[4]?arguments[4]:null;return this.isIdentity||this.resetSelf(),t&&(t.x||t.y)&&this.translateSelf(t.x,t.y),n&&this.rotateSelf(n),r&&(r.x&&this.skewSelf(r.x,0),r.y&&this.skewSelf(0,r.y)),!e||1===e.x&&1===e.y||this.scaleSelf(e.x,e.y),i&&(i.x||i.y)&&this.translateSelf(i.x,i.y),this}},{key:"decompose",value:function(){var t=arguments.length>0&&void 0!==arguments[0]?arguments[0]:0,n=arguments.length>1&&void 0!==arguments[1]?arguments[1]:0,r=this.m,e=r[0]*r[0]+r[1]*r[1],i=[[r[0],r[1]],[r[2],r[3]]],u=it(e);if(0===u)return{origin:{x:r[4],y:r[5]},translate:{x:t,y:n},scale:{x:0,y:0},skew:{x:0,y:0},rotate:0};i[0][0]/=u,i[0][1]/=u;var o=r[0]*r[3]-r[1]*r[2]<0;o&&(u=-u);var a=i[0][0]*i[1][0]+i[0][1]*i[1][1];i[1][0]-=i[0][0]*a,i[1][1]-=i[0][1]*a;var l=it(i[1][0]*i[1][0]+i[1][1]*i[1][1]);if(0===l)return{origin:{x:r[4],y:r[5]},translate:{x:t,y:n},scale:{x:u,y:0},skew:{x:0,y:0},rotate:0};i[1][0]/=l,i[1][1]/=l,a/=l;var f=0;return i[1][1]<0?(f=W(i[1][1])*et,i[0][1]<0&&(f=360-f)):f=X(i[0][1])*et,o&&(f=-f),a=nt(a,it(i[0][0]*i[0][0]+i[0][1]*i[0][1]))*et,o&&(a=-a),{origin:{x:r[4],y:r[5]},translate:{x:t,y:n},scale:{x:u,y:l},skew:{x:a,y:0},rotate:f}}},{key:"toString",value:function(){return null===this.s&&(this.s="matrix("+this.m.map(at).join(" ")+")"),this.s}}]),t}(),ot=/\.0+$/;function at(t){return Number.isInteger(t)?t:t.toFixed(14).replace(ot,"")}function lt(t,n,r){return t+(n-t)*r}function ft(t,n,r){var e=arguments.length>3&&void 0!==arguments[3]&&arguments[3],i={x:lt(t.x,n.x,r),y:lt(t.y,n.y,r)};return e&&(i.a=st(t,n)),i}function st(t,n){return Math.atan2(n.y-t.y,n.x-t.x)}Object.freeze({M:2,L:2,Z:0,H:1,V:1,C:6,Q:4,T:2,S:4,A:7});var ct={},ht=null;function vt(n){var r=function(){if(ht)return ht;if("object"!==("undefined"==typeof document?"undefined":t(document)))return{};var n=document.createElementNS("http://www.w3.org/2000/svg","svg");return n.style.position="absolute",n.style.opacity="0.01",n.style.zIndex="-9999",n.style.left="-9999px",n.style.width="1px",n.style.height="1px",ht={svg:n}}().svg;if(!r)return function(t){return null};var e=document.createElementNS(r.namespaceURI,"path");e.setAttributeNS(null,"d",n),e.setAttributeNS(null,"fill","none"),e.setAttributeNS(null,"stroke","none"),r.appendChild(e);var i=e.getTotalLength();return function(t){var n=e.getPointAtLength(i*t);return{x:n.x,y:n.y}}}function yt(t){return ct[t]?ct[t]:ct[t]=vt(t)}function dt(t,n,r,e){if(!t||!e)return!1;var i=["M",t.x,t.y];if(n&&r&&(i.push("C"),i.push(n.x),i.push(n.y),i.push(r.x),i.push(r.y)),n?!r:r){var u=n||r;i.push("Q"),i.push(u.x),i.push(u.y)}return n||r||i.push("L"),i.push(e.x),i.push(e.y),i.join(" ")}function gt(t,n,r,e){var i=arguments.length>4&&void 0!==arguments[4]?arguments[4]:1,u=dt(t,n,r,e),o=yt(u);try{return o(i)}catch(t){return null}}function pt(t,n,r,e){var i=1-e;return i*i*t+2*i*e*n+e*e*r}function mt(t,n,r,e){return 2*(1-e)*(n-t)+2*e*(r-n)}function bt(t,n,r,e){var i=arguments.length>4&&void 0!==arguments[4]&&arguments[4],u=gt(t,n,null,r,e);return u||(u={x:pt(t.x,n.x,r.x,e),y:pt(t.y,n.y,r.y,e)}),i&&(u.a=wt(t,n,r,e)),u}function wt(t,n,r,e){return Math.atan2(mt(t.y,n.y,r.y,e),mt(t.x,n.x,r.x,e))}function xt(t,n,r,e,i){var u=i*i;return i*u*(e-t+3*(n-r))+3*u*(t+r-2*n)+3*i*(n-t)+t}function At(t,n,r,e,i){var u=1-i;return 3*(u*u*(n-t)+2*u*i*(r-n)+i*i*(e-r))}function kt(t,n,r,e,i){var u=arguments.length>5&&void 0!==arguments[5]&&arguments[5],o=gt(t,n,r,e,i);return o||(o={x:xt(t.x,n.x,r.x,e.x,i),y:xt(t.y,n.y,r.y,e.y,i)}),u&&(o.a=_t(t,n,r,e,i)),o}function _t(t,n,r,e,i){return Math.atan2(At(t.y,n.y,r.y,e.y,i),At(t.x,n.x,r.x,e.x,i))}function St(t,n,r){var e=arguments.length>3&&void 0!==arguments[3]&&arguments[3];if(Mt(n)){if(Bt(r))return bt(n,r.start,r,t,e)}else if(Mt(r)){if(n.end)return bt(n,n.end,r,t,e)}else{if(n.end)return r.start?kt(n,n.end,r.start,r,t,e):bt(n,n.end,r,t,e);if(r.start)return bt(n,r.start,r,t,e)}return ft(n,r,t,e)}function Ot(t,n,r){var e=St(t,n,r,!0);return e.a=function(t){var n=arguments.length>1&&void 0!==arguments[1]&&arguments[1];return n?t+Math.PI:t}(e.a)/p,e}function Mt(t){return!t.type||"corner"===t.type}function Bt(t){return null!=t.start&&!Mt(t)}var It=new ut;var jt={f:function(t){return t?t.join(" "):""},i:function(n,r,e){if(0===n)return r;if(1===n)return e;var i=r.length;if(i!==e.length)return m(n,r,e);for(var u,o=new Array(i),a=0;a<i;a++){if((u=t(r[a]))!==t(e[a]))return m(n,r,e);if("number"===u)o[a]=b(n,r[a],e[a]);else{if(r[a]!==e[a])return m(n,r,e);o[a]=r[a]}}return o}},Et={f:null,i:O,u:function(t,n){return function(r){var e=n(r);t.setAttribute("x1",Q(e[0])),t.setAttribute("y1",Q(e[1])),t.setAttribute("x2",Q(e[2])),t.setAttribute("y2",Q(e[3]))}}},Ft={f:Q,i:b},Pt={f:Q,i:function(t,n,r){var e=b(t,n,r);return e<=0?0:e>=1?1:e}},Rt={f:function(t){var n=arguments.length>1&&void 0!==arguments[1]?arguments[1]:" ";return t&&t.length>0&&(t=t.map((function(t){return Math.floor(1e4*t)/1e4}))),U(t,n)},i:function(t,n,r){var e,i,u,o=n.length,a=r.length;if(o!==a)if(0===o)n=M(o=a,0);else if(0===a)a=o,r=M(o,0);else{var l=(u=(e=o)*(i=a)/function(t,n){for(var r;n;)r=n,n=t%n,t=r;return t||1}(e,i))<0?-u:u;n=B(n,Math.floor(l/o)),r=B(r,Math.floor(l/a)),o=a=l}for(var f=[],s=0;s<o;s++)f.push(g(w(t,n[s],r[s]),6));return f}};function qt(t,n,r,e,i,u,o,a){return n=function(t,n,r){for(var e,i,u,o=t.length-1,a={},l=0;l<=o;l++)(e=t[l]).e&&(e.e=n(e.e)),e.v&&"g"===(i=e.v).t&&i.r&&(u=r.getElementById(i.r))&&(a[i.r]=u.querySelectorAll("stop"));return a}(t,e,a),function(e){var i,u=r(e,t,Tt);return u?"c"===u.t?H(u.v):"g"===u.t?(n[u.r]&&function(t,n){for(var r=0,e=t.length;r<e;r++)t[r].setAttribute("stop-color",H(n[r]))}(n[u.r],u.v),(i=u.r)?"url(#"+i+")":"none"):"none":"none"}}function Tt(t,n,r){if(0===t)return n;if(1===t)return r;if(n&&r){var e=n.t;if(e===r.t)switch(n.t){case"c":return{t:e,v:_(t,n.v,r.v)};case"g":if(n.r===r.r)return{t:e,v:S(t,n.v,r.v),r:n.r}}}return m(t,n,r)}var Nt={blur:A,brightness:w,contrast:w,"drop-shadow":function(t,n,r){return 0===t?n:1===t?r:{blur:A(t,n.blur,r.blur),offset:x(t,n.offset,r.offset),color:_(t,n.color,r.color)}},grayscale:w,"hue-rotate":b,invert:w,opacity:w,saturate:w,sepia:w};function Ct(t,n,r){if(0===t)return n;if(1===t)return r;var e=n.length;if(e!==r.length)return m(t,n,r);for(var i,u=[],o=0;o<e;o++){if(n[o].type!==r[o].type)return n;if(!(i=Nt[n[o].type]))return m(t,n,r);u.push({type:n.type,value:i(t,n[o].value,r[o].value)})}return u}var zt={blur:function(t){return t?function(n){t.setAttribute("stdDeviation",$(n))}:null},brightness:function(t,n,r){return(t=Dt(r,n))?function(n){n=Q(n),t.map((function(t){return t.setAttribute("slope",n)}))}:null},contrast:function(t,n,r){return(t=Dt(r,n))?function(n){var r=Q((1-n)/2);n=Q(n),t.map((function(t){t.setAttribute("slope",n),t.setAttribute("intercept",r)}))}:null},"drop-shadow":function(t,n,r){var e=r.getElementById(n+"-blur");if(!e)return null;var i=r.getElementById(n+"-offset");if(!i)return null;var u=r.getElementById(n+"-flood");return u?function(t){e.setAttribute("stdDeviation",$(t.blur)),i.setAttribute("dx",Q(t.offset.x)),i.setAttribute("dy",Q(t.offset.y)),u.setAttribute("flood-color",H(t.color))}:null},grayscale:function(t){return t?function(n){t.setAttribute("values",U(function(t){return[.2126+.7874*(t=1-t),.7152-.7152*t,.0722-.0722*t,0,0,.2126-.2126*t,.7152+.2848*t,.0722-.0722*t,0,0,.2126-.2126*t,.7152-.7152*t,.0722+.9278*t,0,0,0,0,0,1,0]}(n)))}:null},"hue-rotate":function(t){return t?function(n){return t.setAttribute("values",Q(n))}:null},invert:function(t,n,r){return(t=Dt(r,n))?function(n){n=Q(n)+" "+Q(1-n),t.map((function(t){return t.setAttribute("tableValues",n)}))}:null},opacity:function(t,n,r){return(t=r.getElementById(n+"-A"))?function(n){return t.setAttribute("tableValues","0 "+Q(n))}:null},saturate:function(t){return t?function(n){return t.setAttribute("values",Q(n))}:null},sepia:function(t){return t?function(n){return t.setAttribute("values",U(function(t){return[.393+.607*(t=1-t),.769-.769*t,.189-.189*t,0,0,.349-.349*t,.686+.314*t,.168-.168*t,0,0,.272-.272*t,.534-.534*t,.131+.869*t,0,0,0,0,0,1,0]}(n)))}:null}};var Lt=["R","G","B"];function Dt(t,n){var r=Lt.map((function(r){return t.getElementById(n+"-"+r)||null}));return-1!==r.indexOf(null)?null:r}var Vt={fill:qt,"fill-opacity":Pt,stroke:qt,"stroke-opacity":Pt,"stroke-width":Ft,"stroke-dashoffset":{f:Q,i:b},"stroke-dasharray":Rt,opacity:Pt,transform:function(n,r,e,i){if(!(n=function(n,r){if(!n||"object"!==t(n))return null;var e=!1;for(var i in n)n.hasOwnProperty(i)&&(n[i]&&n[i].length?(n[i].forEach((function(t){t.e&&(t.e=r(t.e))})),e=!0):delete n[i]);return e?n:null}(n,i)))return null;var u=function(t,i,u){var o=arguments.length>3&&void 0!==arguments[3]?arguments[3]:null;return n[t]?e(i,n[t],u):r&&r[t]?r[t]:o};return r&&r.a&&n.o?function(t){var r=e(t,n.o,Ot);return It.recomposeSelf(r,u("r",t,b,0)+r.a,u("k",t,x),u("s",t,x),u("t",t,x)).toString()}:function(t){return It.recomposeSelf(u("o",t,St,null),u("r",t,b,0),u("k",t,x),u("s",t,x),u("t",t,x)).toString()}},"#filter":function(t,n,r,e,i,u,o,a){if(!n.items||!t||!t.length)return null;var l=function(t,n){var r=(t=t.map((function(t){return t&&zt[t[0]]?(n.getElementById(t[1]),zt[t[0]](n.getElementById(t[1]),t[1],n)):null}))).length;return function(n){for(var e=0;e<r;e++)t[e]&&t[e](n[e].value)}}(n.items,a);return l?(t=function(t,n){return t.map((function(t){return t.e=n(t.e),t}))}(t,e),function(n){l(r(n,t,Ct))}):null},"#line":Et,points:{f:U,i:O},d:jt,r:Ft,"#size":Z,"#radius":Y,_:function(t,n){if(Array.isArray(t))for(var r=0;r<t.length;r++)this[t[r]]=n;else this[t]=n}};return function(t){!function(t,n){if("function"!=typeof n&&null!==n)throw new TypeError("Super expression must either be null or a function");t.prototype=Object.create(n&&n.prototype,{constructor:{value:t,writable:!0,configurable:!0}}),n&&u(t,n)}(o,t);var r=a(o);function o(){return n(this,o),r.apply(this,arguments)}return e(o,null,[{key:"build",value:function(t){var n=l(i(o),"build",this).call(this,t,Vt);n.el,n.options;var r=n.player;return function(t,n,r){t.play()}(r),r}}]),o}(V)}));
__SVGATOR_PLAYER__.build({"root":"ejdlw9yk25fs1","animations":[{"duration":6000,"direction":1,"iterations":1,"fill":1,"alternate":false,"elements":{"ejdlw9yk25fs4":{"transform":{"data":{"t":{"x":0.5999999999999979,"y":0.6000000000000574}},"keys":{"o":[{"t":0,"v":{"x":1011.5,"y":83.48046112,"type":"corner"}},{"t":500,"v":{"x":978.251277,"y":79.78615912,"type":"corner"}},{"t":1000,"v":{"x":923.5756,"y":95.30223011999999,"type":"corner"}},{"t":1500,"v":{"x":871.855364,"y":102.69083511999999,"type":"corner"}},{"t":2000,"v":{"x":834.173478,"y":112.29602211999999,"type":"corner"}},{"t":2500,"v":{"x":793.536151,"y":109.34058012,"type":"corner"}},{"t":2800,"v":{"x":744.771358,"y":115.25146412,"type":"corner"}},{"t":3000,"v":{"x":714.478077,"y":122.64006911999999,"type":"corner"}},{"t":3200,"v":{"x":691.9647115599995,"y":155.1500457799996,"type":"corner"}},{"t":3500,"v":{"x":670.0675735599995,"y":189.40832133590877,"type":"corner"}},{"t":3600,"v":{"x":650.6389005599995,"y":206.5529913907951,"type":"corner"}},{"t":3700,"v":{"x":634.4823235599995,"y":224.33097144568148,"type":"corner"}},{"t":3800,"v":{"x":631.0095185599995,"y":234.2277711672345,"type":"corner"}},{"t":3900,"v":{"x":628.4233467599996,"y":244.7156598887875,"type":"corner"}},{"t":4000,"v":{"x":631.0091984599997,"y":259.2672813603405,"type":"corner"}},{"t":4100,"v":{"x":625.9601588266662,"y":267.4154451652269,"type":"corner"}},{"t":4200,"v":{"x":601.3313151933328,"y":279.2579114701133,"type":"corner"}},{"t":4300,"v":{"x":573.7470295599995,"y":279.2786097749996,"type":"corner"}},{"t":4700,"v":{"x":532.3708415599996,"y":297.9302570449994,"type":"corner"}},{"t":5000,"v":{"x":470.3065595599996,"y":275.0255820449994,"type":"corner"}},{"t":5300,"v":{"x":420.06404555999956,"y":266.1592560449994,"type":"corner"}},{"t":5600,"v":{"x":414.15316055999955,"y":283.9421491849994,"type":"corner"}},{"t":6000,"v":{"x":390.47525577999954,"y":298.4181257849994,"type":"corner"}}]}}}}}],"options":{"start":"load","hover":"freeze","click":"freeze","scroll":25,"font":"embed","exportedIds":"unique","title":"tesla"},"animationSettings":{"duration":6000,"direction":1,"iterations":1,"fill":1,"alternate":false}})]]></script></svg>